<?xml version="1.0" encoding="UTF-8"?>
<!DOCTYPE svg PUBLIC "-//W3C//DTD SVG 1.1//EN" "http://www.w3.org/Graphics/SVG/1.1/DTD/svg11.dtd">
<!-- Creator: CorelDRAW X5 -->
<svg xmlns="http://www.w3.org/2000/svg" xml:space="preserve" width="56.0636mm" height="25.9651mm" shape-rendering="geometricPrecision" text-rendering="geometricPrecision" image-rendering="optimizeQuality" fill-rule="evenodd" clip-rule="evenodd"
viewBox="0 0 780 361"
 xmlns:xlink="http://www.w3.org/1999/xlink">
 <g id="Capa_x0020_1">
  <metadata id="CorelCorpID_0Corel-Layer"/>
  <g id="_194169256">
   <path fill="#FEFEFE" d="M252 188c0,50 -40,90 -90,90l0 -180c50,0 90,40 90,90l0 0z"/>
   <path fill="#FEFEFE" d="M72 188c0,50 40,90 90,90l0 72c-89,0 -162,-72 -162,-162 0,-89 72,-162 162,-162l0 72c-50,0 -90,40 -90,90z"/>
   <path fill="#FEFEFE" d="M312 96c6,0 12,-2 17,-5 5,-3 9,-8 13,-15l13 6c-5,9 -11,16 -18,21 -8,5 -16,7 -25,7 -6,0 -12,-1 -18,-4 -6,-2 -11,-6 -15,-10 -4,-4 -8,-9 -10,-15 -2,-6 -4,-12 -4,-18 0,-6 1,-12 4,-18 2,-6 6,-11 10,-15 4,-4 9,-8 15,-10 6,-2 12,-4 18,-4 9,0 17,2 25,7 7,5 14,12 18,21l-13 6c-3,-7 -8,-12 -13,-15 -5,-3 -11,-5 -17,-5 -9,0 -17,3 -23,10 -6,6 -10,14 -10,23 0,9 3,17 10,23 6,6 14,10 23,10l0 0z"/>
   <polygon fill="#FEFEFE" points="383,94 427,94 427,108 369,108 369,17 383,17 383,94 "/>
   <path fill="#FEFEFE" d="M442 13l-2 -8 19 -5 2 8 -19 5zm-1 96l0 -91 14 0 0 91 -14 0z"/>
   <polygon fill="#FEFEFE" points="550,114 488,48 488,108 474,108 474,12 536,78 536,17 550,17 550,114 "/>
   <polygon fill="#FEFEFE" points="567,108 567,17 581,17 581,108 "/>
   <path fill="#FEFEFE" d="M643 96c6,0 12,-2 17,-5 5,-3 9,-8 13,-15l13 6c-5,9 -11,16 -18,21 -8,5 -16,7 -25,7 -6,0 -12,-1 -18,-4 -6,-2 -11,-6 -15,-10 -4,-4 -8,-9 -10,-15 -2,-6 -4,-12 -4,-18 0,-6 1,-12 4,-18 2,-6 6,-11 10,-15 4,-4 9,-8 15,-10 6,-2 12,-4 18,-4 9,0 17,2 25,7 7,5 14,12 18,21l-13 6c-3,-7 -8,-12 -13,-15 -5,-3 -11,-5 -17,-5 -9,0 -17,3 -23,10 -6,6 -10,14 -10,23 0,9 3,17 10,23 6,6 14,10 23,10l0 0z"/>
   <path fill="#FEFEFE" d="M771 108l-15 0 -6 -16 -33 0 -6 16 -15 0 38 -95 38 95 0 0zm-28 -30l-11 -27 -11 27 22 0z"/>
   <path fill="#FEFEFE" d="M270 232l0 -91 31 0c6,0 12,1 18,4 5,2 10,6 14,10 4,4 7,9 10,14 2,6 4,12 4,18 0,6 -1,12 -4,18 -2,5 -6,10 -10,14 -4,4 -9,7 -14,10 -6,2 -12,4 -18,4l-31 0 0 0zm31 -14c9,0 16,-3 22,-9 6,-6 9,-13 9,-22 0,-9 -3,-16 -9,-22 -6,-6 -13,-9 -22,-9l-18 0 0 62 18 0z"/>
   <polygon fill="#FEFEFE" points="417,217 417,232 360,232 360,141 417,141 417,155 375,155 375,179 409,179 409,193 375,193 375,217 417,217 "/>
   <path fill="#FEFEFE" d="M479 230c-6,-2 -11,-6 -15,-10 -4,-4 -8,-9 -10,-15 -2,-6 -4,-12 -4,-18 0,-6 1,-12 4,-18 2,-6 6,-11 10,-15 4,-4 9,-8 15,-10 6,-2 12,-4 18,-4 6,0 12,1 18,4 6,2 11,6 15,10 4,4 8,9 10,15 2,6 4,12 4,18 0,6 -1,13 -4,18 -2,6 -6,11 -10,15 -4,4 -9,8 -15,10 -6,2 -12,4 -18,4 -6,0 -13,-1 -18,-4zm-5 -67c-6,6 -10,14 -10,23 0,9 3,17 10,23 6,6 14,10 23,10 9,0 17,-3 23,-10 6,-6 10,-14 10,-23 0,-9 -3,-17 -10,-23 -6,-6 -14,-10 -23,-10 -9,0 -17,3 -23,10z"/>
   <path fill="#FEFEFE" d="M590 141l0 61c0,9 -3,16 -9,22 -6,6 -14,9 -25,9l0 -14c6,0 11,-2 15,-5 3,-3 5,-7 5,-12l0 -47 -14 0 0 -14 29 0 0 0z"/>
   <path fill="#FEFEFE" d="M632 230c-6,-2 -11,-6 -15,-10 -4,-4 -8,-9 -10,-15 -2,-6 -4,-12 -4,-18 0,-6 1,-12 4,-18 2,-6 6,-11 10,-15 4,-4 9,-8 15,-10 6,-2 12,-4 18,-4 6,0 12,1 18,4 6,2 11,6 15,10 4,4 8,9 10,15 2,6 4,12 4,18 0,6 -1,13 -4,18 -2,6 -6,11 -10,15 -4,4 -9,8 -15,10 -6,2 -12,4 -18,4 -6,0 -13,-1 -18,-4zm-5 -67c-6,6 -10,14 -10,23 0,9 3,17 10,23 6,6 14,10 23,10 9,0 17,-3 23,-10 6,-6 10,-14 10,-23 0,-9 -3,-17 -10,-23 -6,-6 -14,-10 -23,-10 -9,0 -17,3 -23,10z"/>
   <path fill="#FEFEFE" d="M747 233c-8,0 -14,-2 -20,-5 -7,-4 -13,-11 -16,-21l14 -4c2,6 5,11 9,13 4,2 8,3 13,3 1,0 1,0 2,0 1,0 1,0 2,0 2,0 4,-1 6,-2 5,-2 7,-6 8,-11 0,-3 -1,-5 -2,-7 -3,-3 -8,-5 -15,-6 -13,-1 -23,-4 -29,-9 -5,-4 -7,-10 -7,-16 0,-9 3,-16 11,-21 6,-5 14,-7 22,-7 10,0 19,4 26,11 2,2 4,5 6,8 1,1 1,3 3,6l-13 5c-1,-2 -2,-4 -3,-5 -1,-1 -2,-2 -3,-4 -4,-4 -9,-7 -16,-7 -2,0 -4,0 -6,1 -2,0 -4,1 -6,2 -4,3 -7,6 -7,11 0,7 8,11 23,12 11,1 19,4 24,11 4,5 6,11 6,17 -1,9 -4,15 -11,20 -6,4 -13,6 -21,6l0 0 0 0z"/>
   <polygon fill="#FEFEFE" points="346,264 346,278 315,278 315,355 301,355 301,278 270,278 270,264 "/>
   <path fill="#FEFEFE" d="M413 355l-15 0 -6 -16 -33 0 -6 16 -15 0 39 -95 39 95 0 0zm-28 -30l-11 -27 -11 27 22 0 0 0z"/>
   <polygon fill="#FEFEFE" points="501,361 439,295 439,355 424,355 424,259 486,325 486,264 501,264 501,361 "/>
   <path fill="#FEFEFE" d="M518 355l0 -91 31 0c6,0 12,1 18,4 5,2 10,6 14,10 4,4 7,9 10,14 2,6 4,12 4,18 0,6 -1,12 -4,18 -2,5 -6,10 -10,14 -4,4 -9,8 -14,10 -6,2 -12,4 -18,4l-31 0 0 0zm32 -14c9,0 16,-3 22,-9 6,-6 9,-14 9,-22 0,-9 -3,-16 -9,-22 -6,-6 -13,-9 -22,-9l-18 0 0 63 18 0 0 0z"/>
   <polygon fill="#FEFEFE" points="609,355 609,264 623,264 623,355 "/>
   <polygon fill="#FEFEFE" points="655,341 699,341 699,355 640,355 640,264 655,264 "/>
  </g>
 </g>
</svg>
