<?xml version="1.0" encoding="UTF-8"?>
<!DOCTYPE svg PUBLIC "-//W3C//DTD SVG 1.1//EN" "http://www.w3.org/Graphics/SVG/1.1/DTD/svg11.dtd">
<!-- Creator: CorelDRAW X5 -->
<svg xmlns="http://www.w3.org/2000/svg" xml:space="preserve" width="33.7904mm" height="33.6464mm" shape-rendering="geometricPrecision" text-rendering="geometricPrecision" image-rendering="optimizeQuality" fill-rule="evenodd" clip-rule="evenodd"
viewBox="0 0 160 160"
 xmlns:xlink="http://www.w3.org/1999/xlink">
 <g id="Capa_x0020_1">
  <metadata id="CorelCorpID_0Corel-Layer"/>
  <path fill="white" d="M123 47c-5,0 -10,-4 -10,-9 0,-5 5,-10 10,-10 5,0 10,5 10,10 0,5 -4,10 -10,9zm-43 -8c22,0 41,18 41,41 0,23 -19,41 -42,41 -23,0 -41,-19 -41,-42 0,-23 19,-41 41,-41zm26 41c0,-14 -12,-27 -27,-27 -15,0 -27,12 -27,26 0,15 12,27 27,27 14,0 26,-12 26,-26zm-107 -31c0,-10 2,-20 8,-29 5,-8 13,-14 22,-17 9,-3 19,-3 28,-3 18,0 36,0 54,0 10,0 20,2 29,8 10,6 16,16 18,27 1,7 2,14 2,20 0,20 0,39 0,59 0,9 -2,17 -7,24 -5,9 -13,15 -23,18 -9,3 -18,3 -28,3 -18,0 -36,0 -53,0 -9,0 -18,-2 -27,-6 -10,-5 -16,-13 -19,-24 -2,-7 -3,-14 -3,-22 0,-1 0,-43 0,-58zm16 70c1,8 4,15 11,19 6,5 14,6 21,7 24,1 48,1 72,-1 5,0 10,-2 15,-6 8,-6 11,-15 11,-25 0,-18 0,-36 0,-54 0,-6 0,-13 -1,-19 -1,-7 -4,-13 -9,-18 -6,-5 -13,-7 -21,-8 -19,0 -39,-1 -58,-1 -7,0 -14,0 -21,2 -12,4 -18,13 -19,24 -1,14 -1,69 0,78z"/>
 </g>
</svg>
