<?xml version="1.0" encoding="UTF-8"?>
<!DOCTYPE svg PUBLIC "-//W3C//DTD SVG 1.1//EN" "http://www.w3.org/Graphics/SVG/1.1/DTD/svg11.dtd">
<!-- Creator: CorelDRAW X5 -->
<svg xmlns="http://www.w3.org/2000/svg" xml:space="preserve" width="33.7904mm" height="33.6464mm" shape-rendering="geometricPrecision" text-rendering="geometricPrecision" image-rendering="optimizeQuality" fill-rule="evenodd" clip-rule="evenodd"
viewBox="0 0 160 160"
 xmlns:xlink="http://www.w3.org/1999/xlink">
 <g id="Capa_x0020_1">
  <metadata id="CorelCorpID_0Corel-Layer"/>
  <path fill="white" d="M42 30c-7,0 -12,5 -12,12 0,7 5,12 12,12 7,0 12,-5 12,-12 0,-7 -5,-12 -12,-12zm-11 100l22 0 0 -67 -22 0 0 67zm74 -69c-8,0 -14,4 -19,9l0 -8 -22 0 0 67 22 0 0 -39c1,-8 7,-11 11,-11 5,0 10,2 10,15l0 35 22 0 0 -35 0 -12c0,0 -1,-21 -25,-21zm-105 -12c0,-10 2,-20 8,-29 5,-8 13,-14 22,-17 9,-3 19,-3 28,-3 18,0 36,0 54,0 10,0 20,2 29,8 10,6 16,16 18,27 1,7 2,14 2,20 0,20 0,39 0,59 0,9 -2,17 -7,24 -5,9 -13,15 -23,18 -9,3 -18,3 -28,3 -18,0 -36,0 -53,0 -9,0 -18,-2 -27,-6 -10,-5 -16,-13 -19,-24 -2,-7 -3,-14 -3,-22 0,-1 0,-43 0,-58z"/>
 </g>
</svg>
