<?xml version="1.0" encoding="UTF-8"?>
<!DOCTYPE svg PUBLIC "-//W3C//DTD SVG 1.1//EN" "http://www.w3.org/Graphics/SVG/1.1/DTD/svg11.dtd">
<!-- Creator: CorelDRAW X5 -->
<svg xmlns="http://www.w3.org/2000/svg" xml:space="preserve" width="21.0493mm" height="21.0496mm" shape-rendering="geometricPrecision" text-rendering="geometricPrecision" image-rendering="optimizeQuality" fill-rule="evenodd" clip-rule="evenodd"
viewBox="0 0 63 63"
 xmlns:xlink="http://www.w3.org/1999/xlink">
 <g id="Capa_x0020_1">
  <metadata id="CorelCorpID_0Corel-Layer"/>
  <path fill="#FEFEFE" d="M12 0l39 0c6,0 12,5 12,12l0 39c0,6 -5,12 -12,12l-39 0c-6,0 -12,-5 -12,-12l0 -39c0,-6 5,-12 12,-12zm33 29c0,1 -1,1 -2,1 0,0 -1,0 -1,0 -10,-5 -21,-2 -21,-2 -1,0 -2,0 -2,-1 0,-1 0,-2 1,-2 0,0 3,-1 8,-1 3,0 5,0 8,1 3,1 6,2 9,3 1,0 1,2 1,2zm-3 6c0,0 -1,1 -1,1 0,0 -1,0 -1,0 -9,-5 -18,-2 -18,-2 -1,0 -2,0 -2,-1 0,-1 0,-2 1,-2 0,0 3,-1 7,-1 5,0 10,1 14,3 1,0 1,1 1,2zm-2 5c0,0 -1,1 -1,1 0,0 0,0 -1,0 -3,-2 -8,-3 -10,-2 -3,0 -6,1 -6,1 -1,0 -1,0 -1,-1 0,-1 0,-1 1,-1 0,0 3,-1 6,-1 2,0 4,0 6,0 2,0 4,1 6,2 1,0 1,1 0,2zm-8 -27c-10,0 -19,8 -19,19 0,10 8,19 19,19 10,0 19,-8 19,-19 0,-10 -8,-19 -19,-19z"/>
 </g>
</svg>
